<!--?xml version="1.0" encoding="utf-8"?-->
<!-- Generator: Adobe Illustrator 15.1.0, SVG Export Plug-In . SVG Version: 6.00 Build 0)  -->

<svg version="1.1" id="_x32_" xmlns="http://www.w3.org/2000/svg" xmlns:xlink="http://www.w3.org/1999/xlink" x="0px" y="0px" width="512px" height="512px" viewBox="0 0 512 512" style="width: 64px; height: 64px; opacity: 1;" xml:space="preserve">
<style type="text/css">

	.st0{fill:#4B4B4B;}

</style>
<g>
	<path class="st0" d="M72,0v512h368V0H72z M192,448h-64v-64h64V448z M192,352h-64v-64h64V352z M192,256h-64v-64h64V256z M288,448
		h-64v-64h64V448z M288,352h-64v-64h64V352z M288,256h-64v-64h64V256z M384,448h-64v-64h64V448z M384,352h-64v-64h64V352z M384,256
		h-64v-64h64V256z M384,136H128V64h256V136z" style="fill: rgb(75, 75, 75);"></path>
</g>
</svg>
